Format                                   : MPEG-PS
File size                                : 54.9 MiB
Duration                                 : 4mn 10s
Overall bit rate                         : 1 836 Kbps

Video
ID                                       : 224 (0xE0)
Format                                   : MPEG Video
Format version                           : Version 1
Format settings, BVOP                    : Yes
Format settings, Matrix                  : Custom
Duration                                 : 4mn 10s
Bit rate                                 : 1 600 Kbps
Width                                    : 320 pixels
Height                                   : 240 pixels
Display aspect ratio                     : 4:3
Frame rate                               : 29.970 fps
Color space                              : YUV
Bit depth                                : 8 bits
Scan type                                : Progressive
Compression mode                         : Lossy
Bits/(Pixel*Frame)                       : 0.695
Stream size                              : 48.0 MiB (88%)

Audio
ID                                       : 192 (0xC0)
Format                                   : MPEG Audio
Format version                           : Version 1
Format profile                           : Layer 2
Duration                                 : 4mn 10s
Bit rate mode                            : Constant
Bit rate                                 : 192 Kbps
Channel(s)                               : 2 channels
Sampling rate                            : 44.1 KHz
Compression mode                         : Lossy
Stream size                              : 5.74 MiB (10%)
